<svg xmlns="http://www.w3.org/2000/svg" fill="none" viewBox="-0.855 -0.855 24 24" id="Shopping-Cart-1--Streamline-Core" height="24" width="24">
  <desc>
    Shopping Cart 1 Streamline Icon: https://streamlinehq.com
  </desc>
  <g id="shopping-cart-1--shopping-cart-checkout">
    <path id="Vector" stroke="#77662e" stroke-linecap="round" stroke-linejoin="round" d="M0.80805708 0.7960714285714285 4.696343785714285 0.7960714285714285l1.3851642857142856 13.772035714285714c0.05757188571428571 0.37964646428571425 0.2504122285714286 0.7256987142857142 0.5430003214285715 0.9743914285714285 0.29257217142857145 0.2486927142857143 0.6651813642857143 0.3832287857142857 1.0491425357142858 0.37893h10.0305c0.3472463571428571 0.01815042857142857 0.6908307857142857 -0.07790355 0.9782125714285713 -0.27338685 0.287541 -0.19549922142857143 0.5031171428571428 -0.4797285642857143 0.6139302857142857 -0.8092702928571428l2.11755 -6.368571428571428c0.07897028571428572 -0.23942644285714287 0.09998657142857141 -0.49420114285714284 0.06113828571428571 -0.7433078142857142 -0.03868907142857143 -0.24912259285714283 -0.13612821428571428 -0.4854762 -0.2840382857142857 -0.6896207571428572 -0.15411942857142857 -0.21704091428571426 -0.36030192857142856 -0.39196964999999995 -0.5994417857142857 -0.5088010928571429 -0.23913985714285713 -0.11681552142857143 -0.5039132142857142 -0.17179221428571428 -0.7698010714285713 -0.15989890714285715h-14.568107142857142" stroke-width="1.71"></path>
    <path id="Vector_2" stroke="#77662e" stroke-linecap="round" stroke-linejoin="round" d="M17.433486642857144 21.49392857142857c-0.43959064285714283 0 -0.7960714285714285 -0.3564807857142857 -0.7960714285714285 -0.7960714285714285s0.3564807857142857 -0.7960714285714285 0.7960714285714285 -0.7960714285714285 0.7960714285714285 0.3564807857142857 0.7960714285714285 0.7960714285714285 -0.3564807857142857 0.7960714285714285 -0.7960714285714285 0.7960714285714285Z" stroke-width="1.71"></path>
    <path id="Vector_3" stroke="#77662e" stroke-linecap="round" stroke-linejoin="round" d="M7.084573992857142 21.49392857142857c-0.43967025 0 -0.7960714285714285 -0.3564807857142857 -0.7960714285714285 -0.7960714285714285s0.35640117857142856 -0.7960714285714285 0.7960714285714285 -0.7960714285714285c0.43965432857142855 0 0.7960714285714285 0.3564807857142857 0.7960714285714285 0.7960714285714285s-0.3564171 0.7960714285714285 -0.7960714285714285 0.7960714285714285Z" stroke-width="1.71"></path>
  </g>
</svg>