<svg xmlns="http://www.w3.org/2000/svg" fill="none" viewBox="-0.855 -0.855 24 24" id="Shopping-Bag-Hand-Bag-2--Streamline-Core" height="24" width="24">
  <desc>
    Shopping Bag Hand Bag 2 Streamline Icon: https://streamlinehq.com
  </desc>
  <g id="shopping-bag-hand-bag-2--shopping-bag-purse-goods-item-products">
    <path id="Vector" stroke="#77662e" stroke-linecap="round" stroke-linejoin="round" d="M20.506800000000002 19.72665c0.025155857142857143 0.22337764285714287 0.0025474285714285716 0.4494619285714285 -0.06607392857142858 0.6636051428571428 -0.06862135714285714 0.21398399999999998 -0.18166349999999998 0.41109128571428566 -0.3319617857142857 0.5782662857142857 -0.1506167142857143 0.16685657142857144 -0.33498685714285714 0.3001189285714286 -0.5406917142857143 0.3905526428571428 -0.2058640714285714 0.09059292857142856 -0.4286048571428571 0.13660585714285714 -0.6534154285714285 0.1348545H3.3753587785714285c-0.2248583357142857 0.0017513571428571428 -0.44751951428571424 -0.04426157142857142 -0.6533358214285714 -0.1348545 -0.20581630714285712 -0.09043371428571428 -0.39012276428571424 -0.22369607142857145 -0.5407713214285714 -0.3905526428571428 -0.15025052142857143 -0.167175 -0.2633881928571428 -0.3642822857142857 -0.33199362857142856 -0.5782662857142857 -0.06860543571428572 -0.21414321428571428 -0.09111833571428572 -0.4402275 -0.06604208571428571 -0.6636051428571428l1.4010857142857143 -12.562007142857142H19.105714285714285l1.4010857142857143 12.562007142857142Z" stroke-width="1.71"></path>
    <path id="Vector_2" stroke="#77662e" stroke-linecap="round" stroke-linejoin="round" d="M7.164642857142857 7.164642857142857V4.776428571428571c0 -1.0556543999999999 0.41935450714285716 -2.068082121428571 1.1658147642857144 -2.8145423785714287C9.076917878571427 1.2154291199999998 10.0893456 0.7960714285714285 11.145 0.7960714285714285c1.0556543999999999 0 2.068082121428571 0.41935769142857143 2.8145423785714287 1.1658147642857144C14.706002635714286 2.70834645 15.125357142857142 3.7207741714285714 15.125357142857142 4.776428571428571v2.3882142857142856" stroke-width="1.71"></path>
  </g>
</svg>